<?xml version="1.0" encoding="utf-8"?>
<!-- Generator: Adobe Illustrator 16.0.0, SVG Export Plug-In . SVG Version: 6.00 Build 0)  -->
<!DOCTYPE svg PUBLIC "-//W3C//DTD SVG 1.1//EN" "http://www.w3.org/Graphics/SVG/1.1/DTD/svg11.dtd">
<svg version="1.1" id="Layer_1" xmlns="http://www.w3.org/2000/svg" xmlns:xlink="http://www.w3.org/1999/xlink" x="0px" y="0px"
	 width="50px" height="100px" viewBox="0 0 50 100" enable-background="new 0 0 50 100" xml:space="preserve">
<path fill="#010101" d="M25,0L0,12.5v75L25,100l25-12.5v-75L25,0z M25,1.25V10L8.889,18.055l-7.777-4.861L25,1.25z M25,98.75
	L1.111,86.805l7.777-4.861L25,90V98.75z M40,81.25l-15,7.5l-15-7.5v-62.5l15-7.5l15,7.5V81.25z M48.926,86.855l-7.814-4.91
	l0.002-63.892l7.77-4.854L48.926,86.855z"/>
<polygon fill="#010101" points="25,13.75 12.5,20 12.5,65 37.5,53.75 37.5,20 "/>
<polygon fill="#010101" points="12.5,66.25 12.5,71.25 37.5,60 37.5,55 "/>
<polygon fill="#010101" points="12.5,73.75 12.5,77.5 37.5,66.25 37.5,62.5 "/>
</svg>
